<?xml version="1.0" encoding="UTF-8"?>
<svg id="Logo" xmlns="http://www.w3.org/2000/svg" viewBox="0 0 512 512">
  <defs>
    <style>
      .cls-1 {
        fill: red;
      }
    </style>
  </defs>
  <g>
    <g>
      <path class="cls-1" d="M105.34,243.63c0-17.63,6.99-30.72,12.98-39.15,5.43-7.65,13.2-16.41,22.4-16.41,5.43,0,7.87,2,7.87,11.65,0,3.22-.22,7.43-.78,12.64-2.66,3.99-10.09,8.21-12.75,8.21-2.33,0-2.77-4.1-2.77-7.43l2-5.21c-5.21,7.32-10.54,17.97-10.54,27.17,0,4.44,1,8.54,4.88,8.54,5.21,0,8.76-3.66,11.87-7.43l-7.99.78c-1-1.11-2.33-4.66-2.33-7.87,0-1.33.33-2.99,1-3.88,1.44-1.77,17.97-2.33,19.74-2.33,1,0,4.66,10.2,5.88,14.09,2.11,6.65,10.98,25.84,10.98,30.94,0,.78-.22,1.33-1.66,1.33-4.66,0-17.19-6.1-20.07-7.87-2.55-1.55-2.55-5.66-2.55-8.98l3.33-9.54c-2.55,6.21-6.54,12.64-9.87,16.64-3.88,4.66-9.54,6.43-14.53,6.43-12.98,0-17.08-11.98-17.08-22.29Z"/>
      <path class="cls-1" d="M156.69,256.61c0-1.89,1.89-6.65,3.11-9.43,2.77-6.43,4.1-10.98,4.1-19.41,0-3.55-.22-7.76-.67-13.09v8.54c-2.33,0-3.11-1.44-3.22-2.44-.22-2.33-.44-4.77-.44-6.77,0-1.55.11-4.1.33-4.88.33-1.33,8.65-7.65,13.75-7.65,1.89,0,3.44,14.42,4.33,25.29l3.99-1.55c-1.33-7.76-3.55-16.19-3.55-20.63,0-1.89.22-2.88,2.99-2.88,4.55,0,10.09,3.77,10.43,4.77,2,5.99,19.63,45.14,19.63,49.91,0,2.55-1,3.99-3.55,3.99-7.54,0-18.85-5.88-20.74-8.43l-2-14.64,5.88-2c-6.54,1.44-10.43,2.33-16.08,4.21l4.21-.55c.67,2.22,1.44,11.42,1.44,14.2,0,1.77-10.98,7.32-17.75,7.32-2.99,0-6.21-1-6.21-3.88Z"/>
      <path class="cls-1" d="M206.81,225.44l-.33-2.77,1.89-.33c-3.88-.33-5.77-1.66-5.77-5.21,0-4.55.67-6.32,1.44-6.77,2-1.22,32.5-8.87,40.04-8.87.78,0,1.22,4.1,1.22,8.32s-.11,8.1-1,9.21c-.89,1.22-21.63,2-21.63,2.99,0,.67.33,5.77,1.11,7.43l-.22-3.99c1.44-.55,8.21-2.55,10.65-2.55,1.89,0,2.88,12.53,2.88,13.75-1.11.44-8.98,1.66-10.54,1.66,0,2.11.33,3.22,1.22,3.22,3.77,0,15.53-4.88,18.97-4.88,1.66,0,3.44,11.31,3.44,16.86,0,1.55-27.62,6.77-36.16,6.77-3.99,0-6.65-28.06-7.21-34.82Z"/>
      <path class="cls-1" d="M264.15,244.74c0-8.87,2-16.19,3.11-25.84l-1.55,5.66-12.87,4.21c-4.77-6.77-9.32-14.97-9.32-23.96,0-2.22,4.21-3.22,9.32-3.22,9.87,0,35.38,2.33,44.47,6.88,2,1,2.55,3.44,2.55,7.21s-.55,5.99-4.44,5.99c-4.55,0-7.65-.55-13.31-.55l-1.11-4.88,2.33,32.27.33-7.99.78.55,3.99,11.76c-1.55,3.99-14.75,7.65-20.85,7.65-3.22,0-3.44-5.77-3.44-15.75Z"/>
      <path class="cls-1" d="M316.06,244.74c0-8.87,2-16.19,3.11-25.84l-1.55,5.66-12.87,4.21c-4.77-6.77-9.32-14.97-9.32-23.96,0-2.22,4.21-3.22,9.32-3.22,9.87,0,35.38,2.33,44.47,6.88,2,1,2.55,3.44,2.55,7.21s-.55,5.99-4.44,5.99c-4.55,0-7.65-.55-13.31-.55l-1.11-4.88,2.33,32.27.33-7.99.78.55,3.99,11.76c-1.55,3.99-14.75,7.65-20.85,7.65-3.22,0-3.44-5.77-3.44-15.75Z"/>
      <path class="cls-1" d="M343.45,234.65c2.88-7.1,4.33-9.43,8.54-20.52l-3.22,5.55c-1.33,0-1.89-.33-1.89-1.33,0-1.11,6.99-15.42,8.54-15.42,5.21,0,7.87-1,13.2-1.33,5.55,1.66,17.52,33.72,17.52,43.25,0,10.65-24.62,15.75-39.82,15.75-5.43,0-6.77-4.88-6.77-11.65,0-4.1,1.44-8.21,3.88-14.31ZM369.84,236.87l-3.88,2.66-1.44-20.96c-.89,0-4.88,15.19-4.88,22.07,0,1.33.33,2.22,1,2.22,1,0,6.77-2.11,9.21-5.99Z"/>
    </g>
    <g>
      <path class="cls-1" d="M157.98,309.59c0-15.8,6.26-27.53,11.63-35.09,4.87-6.86,11.83-14.71,20.08-14.71,4.87,0,7.06,1.79,7.06,10.44,0,2.88-.2,6.66-.7,11.33-2.39,3.58-9.04,7.36-11.43,7.36-2.09,0-2.48-3.68-2.48-6.66l1.79-4.67c-4.67,6.56-9.44,16.1-9.44,24.35,0,3.98.89,7.65,4.37,7.65,4.67,0,7.85-3.28,10.64-6.66l-7.16.7c-.89-.99-2.09-4.17-2.09-7.06,0-1.19.3-2.68.89-3.48,1.29-1.59,16.1-2.09,17.69-2.09.89,0,4.17,9.14,5.27,12.62,1.89,5.96,9.84,23.16,9.84,27.73,0,.7-.2,1.19-1.49,1.19-4.17,0-15.41-5.47-17.99-7.06-2.29-1.39-2.29-5.07-2.29-8.05l2.98-8.55c-2.29,5.57-5.86,11.33-8.85,14.91-3.48,4.17-8.55,5.76-13.02,5.76-11.63,0-15.31-10.73-15.31-19.98Z"/>
      <path class="cls-1" d="M203,319.33c0-.2,1.59-4.57,3.88-9.74,5.57-12.52,6.16-14.01,10.14-25.44l-2.88,6.46c-1.09-.8-1.69-2.09-1.69-3.38,0-3.08,4.37-15.41,5.37-15.41,3.78,0,10.64.3,11.33,1.89,1.99,4.67,7.85,18.19,14.91,31.31l-1.39-4.97,1.39-.7c1.59,0,7.65,20.08,7.65,23.26,0,1.19-5.37,2.09-6.66,2.09-2.58,0-10.04-5.47-16-9.84-1.19-1.39-1.69-6.96-1.99-10.93l-5.27,2.09,3.28-.6c.1,1.29.2,3.48.2,5.57,0,2.78-.7,4.37-1.39,5.07-1.79,1.59-11.73,7.75-18.79,8.65-1.29-.89-2.09-4.17-2.09-5.37ZM230.83,294.28h-4.27l-.8-7.06-1.69,7.36-5.27,2.19,12.03-2.48Z"/>
      <path class="cls-1" d="M250.51,317.94c0-12.03.7-23.56.7-35.78l-.8,8.05-2.88.99c-1.09-2.48-1.79-7.95-1.79-14.31,0-1.49.2-5.07,1.79-5.07,3.98,0,14.11.8,22.26,3.98,6.76,2.58,12.13,5.57,12.13,12.32,0,4.97-3.08,9.74-8.15,12.32.8-.4,4.08-.89,4.77-.89,1.69,0,6.26.7,6.26,7.35,0,2.88.99,12.32.99,16.3,0,1.09-.1,1.79-.99,1.79-2.88,0-14.01-.89-14.01-4.47,0-2.98.3-5.57,1.09-9.84l-4.77.5-1.29-6.46,1.19,15.8c-4.97,2.88-9.04,4.17-13.22,4.17-2.98,0-3.28-3.98-3.28-6.76ZM267.81,296.17c1.99-.99,2.58-2.58,2.58-5.17s-2.48-4.37-5.57-4.47l.89,9.44-2.88.99c1.89,0,3.58-.1,4.97-.8Z"/>
      <path class="cls-1" d="M280.83,319.33c0-.2,1.59-4.57,3.88-9.74,5.57-12.52,6.16-14.01,10.14-25.44l-2.88,6.46c-1.09-.8-1.69-2.09-1.69-3.38,0-3.08,4.37-15.41,5.37-15.41,3.78,0,10.64.3,11.33,1.89,1.99,4.67,7.85,18.19,14.91,31.31l-1.39-4.97,1.39-.7c1.59,0,7.65,20.08,7.65,23.26,0,1.19-5.37,2.09-6.66,2.09-2.58,0-10.04-5.47-16-9.84-1.19-1.39-1.69-6.96-1.99-10.93l-5.27,2.09,3.28-.6c.1,1.29.2,3.48.2,5.57,0,2.78-.7,4.37-1.39,5.07-1.79,1.59-11.73,7.75-18.79,8.65-1.29-.89-2.09-4.17-2.09-5.37ZM308.66,294.28h-4.27l-.8-7.06-1.69,7.36-5.27,2.19,12.03-2.48Z"/>
      <path class="cls-1" d="M323.56,309.69c0-15.8,22.46-37.87,30.71-37.87,4.87,0,7.06,1.79,7.06,10.44,0,2.88-.2,5.57-.7,8.25-2.39,3.58-9.04,6.46-11.43,6.46-2.09,0-2.39-3.08-2.39-6.06l2.68-3.28c-5.47,4.27-10.73,14.51-10.73,20.18,0,2.09,2.19,3.98,4.97,3.98,2.09,0,4.57-.99,6.76-3.68l-5.57.6c-.89-.99-1.99-3.48-1.99-5.27,0-2.29.1-3.28.89-3.68,1.89-.99,16-3.68,17.59-3.68.7,0,3.08,5.37,4.67,8.95,1.59,3.48,6.96,16,6.96,18.09,0,1.29-.7,1.59-2.98,1.59-2.48,0-14.81-2.19-14.81-6.66l2.48-7.06c-2.29,5.57-6.26,8.95-8.45,10.44-3.28,2.19-6.96,3.28-11.43,3.28-10.64,0-14.31-8.25-14.31-15.01Z"/>
      <path class="cls-1" d="M367.89,293.29l-.3-2.48,1.69-.3c-3.48-.3-5.17-1.49-5.17-4.67,0-4.08.6-5.67,1.29-6.06,1.79-1.09,29.12-7.95,35.88-7.95.7,0,1.09,3.68,1.09,7.45s-.1,7.26-.89,8.25c-.79,1.09-19.38,1.79-19.38,2.68,0,.6.3,5.17.99,6.66l-.2-3.58c1.29-.5,7.35-2.29,9.54-2.29,1.69,0,2.58,11.23,2.58,12.32-.99.4-8.05,1.49-9.44,1.49,0,1.89.3,2.88,1.09,2.88,3.38,0,13.91-4.37,17-4.37,1.49,0,3.08,10.14,3.08,15.11,0,1.39-24.75,6.06-32.4,6.06-3.58,0-5.96-25.15-6.46-31.21Z"/>
    </g>
  </g>
  <g>
    <path class="cls-1" d="M178.06,340.96c-.87-2.41-1.74-4.9-3.03-7.1-.58.04-1.16.07-1.74.07-6.81,0-12.25-2.97-15.72-8.59-2.54-4.11-3.94-9.7-3.94-15.74,0-2.28.12-4.55.37-6.79-7.71-11.33-15.43-22.66-23.16-33.97-2.62.95-5.47,1.45-8.42,1.45-7.41,0-13.33-3.23-17.11-9.34-2.79-4.51-4.32-10.66-4.32-17.3,0-5.1.55-10.12,1.65-15.02-11.57-2.2-23.14-4.39-34.71-6.57-4.74-.89-8.28-3.29-9.46-8.14-.45-1.84-.36-3.92-.03-5.81,1.3-7.52,2.78-15.01,4.22-22.51.32-1.67.45-3.25-1.01-4.48-1.53-1.28-3.11-.86-4.74-.19-12.2,5.02-20.77,13.87-25.97,25.77-7.61,17.4-5.76,33.99,5.89,49.11,7.13,9.26,16.81,14.62,28.26,16.86,5.5,1.08,11.07,1.96,16.47,3.42,7.62,2.05,13.35,6.85,17.77,13.35,14.74,21.67,29.51,43.33,44.28,64.98,5.1,7.48,13.17,10.58,21.36,8.14,5.85-1.74,9.88-5.56,12.22-11.18.12-.3.33-.56.49-.84.31-1.65.63-3.31.94-4.96-.16-1.54-.03-3.19-.55-4.61ZM60.04,257.01c-1.71-.35-2.48-1.55-2.92-3.11-1.31-4.69-2.66-9.37-3.98-14.06-.17-.59-.27-1.21-.27-1.82.02-2.45,2.38-4.04,4.69-3.24,1.52.53,2.1,1.74,2.5,3.13,1.16,4.09,2.34,8.18,3.48,12.28.29,1.02.6,2.05.7,3.1.24,2.37-1.88,4.19-4.21,3.71ZM78.38,256.44c-.11,2.16-2.09,3.67-4.21,3.25-1.56-.3-2.42-1.33-2.83-2.77-1.4-4.9-2.82-9.79-4.16-14.7-.65-2.37.33-4.28,2.33-4.86s3.87.56,4.56,2.89c1.42,4.83,2.77,9.68,4.13,14.54.15.53.21,1.11.19,1.66ZM88.42,262.39c-1.72-.28-2.59-1.43-3.03-3-1.36-4.79-2.73-9.58-4.05-14.38-.69-2.51.26-4.44,2.34-5,2.06-.55,3.86.63,4.58,3.11,1.35,4.68,2.66,9.36,3.97,14.05.15.54.28,1.09.29,1.65.04,2.25-1.92,3.93-4.09,3.56ZM164.49,342.65c-.73,3.89-4.46,6.46-8.34,5.74-3.87-.72-6.42-4.48-5.69-8.37.73-3.89,4.47-6.45,8.34-5.73,3.87.73,6.42,4.48,5.69,8.36Z"/>
    <path class="cls-1" d="M114.27,202.67c-4.23,6.08-7.45,12.41-9.67,18.95-4.83-.91-9.66-1.83-14.49-2.76-3.07-.59-4.06-2.06-3.49-5.13.81-4.41,1.66-8.81,2.5-13.22.88-4.63,1.71-9.26,2.64-13.88.6-2.99,3.09-4.06,5.72-2.49,4.83,2.87,8.84,6.66,12.2,11.14,1.77,2.36,3.29,4.83,4.58,7.4Z"/>
  </g>
  <g>
    <path class="cls-1" d="M437.35,198.97c-17.4,8.2-34.69,16.35-52.04,24.52,2.68,7.53,5.19,16.33,5.19,21.36,0,6.22-4.87,10.47-10.53,13.31,1.86,3.95,3.72,7.89,5.58,11.84,5.65-1.23,12.41-2.54,15.74-2.54.79,0,3.47.26,4.59,3.61.22.66.39,1.47.53,2.48.21,1.56.32,3.59.32,5.72,0,5.92-.26,8.92-1.8,10.9-1.3,1.7-3.32,2.06-6.47,2.44-.14.02-.29.03-.43.05.23.97.44,2.1.64,3.44.12.8.22,1.61.31,2.39.18.39.37.78.55,1.17,1.69-.45,3.03-.7,4.14-.7,1.65,0,3.9.79,5.22,4.58.42,1.2.81,2.77,1.16,4.67.34,1.86.62,3.88.81,5.77,22.03-10.39,43.93-20.71,66.03-31.12-13.14-27.88-26.28-55.74-39.55-83.91ZM429.44,211.92c1.6-.76,2.97-1.4,4.43-2.09,10.85,23.02,21.62,45.87,32.45,68.85-1.54.73-2.9,1.37-4.42,2.09-10.86-23.04-21.65-45.94-32.46-68.85Z"/>
    <path class="cls-1" d="M432.97,196.9c-10.65,5.01-21.29,10.03-31.94,15.05-5.67,2.67-11.35,5.33-17.02,8.01-.16-.43-.33-.86-.49-1.27-1.74-4.45-3.54-8.44-5.24-11.66,15.95-7.55,31.92-15.07,47.88-22.6.61-.29,1.26-.54,1.92-.69,3.7-.86,7.36,1.3,8.72,5.1,1.3,3.65.08,6.21-3.83,8.05Z"/>
    <path class="cls-1" d="M479.96,301.42c-20.13,9.53-40.28,19-60.44,28.47-1.05.49-2.17.9-3.3,1.12-3.62.7-7.31-1.56-8.48-5.1-.33-1-.49-1.92-.46-2.75.07-2.12,1.32-3.74,3.83-5.04.17-.08.34-.17.51-.25,10.65-5.01,21.29-10.03,31.93-15.05,0,0,0,.02.01.02,11-5.18,21.99-10.37,32.99-15.54,3.09-1.46,5.56-.78,7.52,2.05,3.12,4.51,1.52,9.42-4.11,12.09Z"/>
    <path class="cls-1" d="M424.4,181.14c-15.96,7.52-31.92,15.04-47.98,22.61-2.31-3.73-4.32-5.66-6.55-6.33l-.74-.22-.78.05c-1.26.08-2.39.19-3.43.32,1.55-2.51,3.59-4.51,5.9-5.6,11.35-5.37,22.69-10.73,34.06-16.06,5.67-2.66,16.19.17,19.51,5.24Z"/>
    <path class="cls-1" d="M364.21,164.76c3.03-1.43,5.64-2.66,8.44-3.98l3.03,6.42c-2.69,1.27-5.29,2.49-8.16,3.85l2.91,6.18c7.72-3.64,15.34-7.23,23.24-10.95-2.66-5.65-5.17-11.22-7.98-16.63-.38-.73-2.55-1.27-3.45-.88-6.15,2.68-12.19,5.63-18.26,8.51-1.74.82-2.07,2.23-1.44,3.9.41,1.08.97,2.1,1.67,3.58Z"/>
    <path class="cls-1" d="M348.47,169.23c.26-.87,1.22-2.45.79-3.08-.62-.92-2.37-1.78-3.44-1.59-5.64.99-11.23,2.3-16.83,3.53-9.11,1.99-18.23,3.96-27.32,6.05-1.22.28-2.48,1.03-3.33,1.93-.38.4-.08,2.21.43,2.52.94.57,2.34.88,3.42.66,10.37-2.16,20.7-4.46,31.05-6.72,4.84-1.06,9.68-2.1,15.22-3.3Z"/>
    <path class="cls-1" d="M356.35,185.14c-.21.63-1.11,1.03-1.72,1.51-5.87,4.61-11.73,9.22-17.6,13.83-2.29-.43-4.67-.82-7.07-1.16,7.32-5.75,14.64-11.5,21.97-17.24.46-.36.95-.97,1.42-.96,1.14.03,2.78-.01,3.28.67.52.7.1,2.28-.27,3.35Z"/>
    <path class="cls-1" d="M404.25,171.92c-1.42-4.83-2.49-5.33-6.77-3.3-9.21,4.37-18.43,8.72-27.66,13.07-4.48,2.12-4.73,2.95-1.96,7.37,12.12-5.71,24.26-11.43,36.38-17.15Z"/>
    <path class="cls-1" d="M323.08,190.99c3.42-1.61,6.84-3.23,10.27-4.84,1.6-.75,2.63-1.89,1.82-3.67-.81-1.79-2.41-1.79-3.98-1.06-7.03,3.29-14.09,6.53-21.01,10.03-.9.45-1.74,2.47-1.48,3.46.49,1.86,2.29,1.8,3.86,1.07,3.53-1.62,7.03-3.3,10.54-4.95,0-.02-.02-.03-.02-.05Z"/>
    <path class="cls-1" d="M347.61,179.34c1.49-.7,3.16-1.17,4.39-2.19.75-.62,1.37-2.33,1.02-3.08-.36-.78-2.18-1.64-2.95-1.35-3.16,1.17-6.26,2.6-9.16,4.31-.76.45-1.17,2.39-.88,3.39.18.6,2.12,1.15,3.11.94,1.56-.33,2.99-1.3,4.48-2,0,0,0-.01-.01-.02Z"/>
  </g>
  <path class="cls-1" d="M411.11,318.1c-2.51,1.3-3.76,2.92-3.83,5.04,2.55-.98,3.84-2.56,3.84-4.71,0-.11,0-.22,0-.33Z"/>
</svg>