<?xml version="1.0" encoding="UTF-8"?>
<svg id="Logo" xmlns="http://www.w3.org/2000/svg" viewBox="0 0 1080 1080">
  <defs>
    <style>
      .cls-1 {
        fill: #d44c43;
      }
    </style>
  </defs>
  <path class="cls-1" d="M1080,609.05c-3.84,15.03-6.35,30.56-11.76,45-15.61,41.7-43.58,73.15-83.07,93.82-6.72,3.52-9.05,7.57-9.79,14.81-9.45,92.97-56.78,159.75-142.68,195.81-72.84,30.58-144.08,21.86-211.03-20.28-24.68-15.54-44.81-35.81-61.29-59.7-3.29-4.76-6.9-6.17-12.39-6.15-38.1.12-76.24,1.03-114.29-.36-60.2-2.2-104.06-38.61-119.2-96.79-.47-1.8-1.11-3.57-2.02-6.49-3.05,0-6.38,0-9.7,0-42.16-.13-84.34.56-126.48-.58-77.38-2.09-149.57-57.94-170.04-130.29-22.88-80.84,18.81-170.71,95.41-205.74,2.26-1.03,4.48-2.17,7.14-3.46-1.29-8.84-2.91-17.68-3.83-26.58-11.14-108.06,76.64-200.49,184.84-194.55,9.3.51,18.6,1.93,27.77,3.62,5.39.99,8.18.17,10.77-5.3,24.17-51.16,64.07-83.71,118.78-97.34,80.39-20.03,161.98,19.04,199.78,95.31,3.45,6.97,6.67,8.31,14.18,6.75,118.58-24.58,227.46,78.8,209.54,198.63-.36,2.4-.35,4.85-.39,5.39,22.05,1.04,43.91.2,65.16,3.41,72.69,10.99,134.34,76.26,142.76,149.21.32,2.74,1.22,5.41,1.85,8.12v33.75ZM533.33,828.63c-1.04-3.34-1.62-5.4-2.32-7.42-7.88-22.92-12.44-46.53-12.02-70.73.11-6.49,2.84-14.67,7.33-19.01,12.34-11.92,32.19-4.24,34.73,12.84,1.92,12.95,1.8,26.27,4.5,39.01,29.41,138.68,189.63,195.67,299.68,106.35,37.9-30.76,59.36-71.46,66.73-121.1-10.41,0-20.02.33-29.59-.1-8.75-.39-15.48-4.61-19.08-12.88-3.41-7.83-3.38-16.61,2.96-21.74,5.77-4.67,14.22-8.04,21.63-8.33,68.45-2.75,126.86-60.26,128.83-128.47,3.01-104.03-103.49-169.14-190.15-125.76-11.58,5.8-20.77,4.81-27.77-2.07-7.93-7.79-8.74-16.69-2.66-29.24,35.9-74.23-6.01-164.15-86.29-184.86-28.32-7.3-56.17-5.41-83.71,4.61-14.24,5.19-24.14-.16-29.43-14.46-1.19-3.22-2.22-6.49-3.36-9.73-19.12-53.98-71.12-90.49-126.97-89.15-58.32,1.4-108.31,39.13-125.08,94.4-6.02,19.84-15.28,24.42-35.26,17.47-77.52-26.97-158.23,17.85-176.09,97.96-5.65,25.37-3.08,50.2,5.68,74.6,6.32,17.6.78,28.04-17.12,33.61-2.08.65-4.19,1.23-6.25,1.94-75.8,25.83-112.05,115.85-73.45,185.33,26.1,46.97,68.69,70.19,121.19,72.95,42.99,2.26,86.19.56,129.29.57,1.19,0,2.39-.41,3.48-.61,12.13-59.5,64.18-105.4,134.16-103.18,63.03,2,126.18.42,189.28.43,3.43,0,6.9-.14,10.29.28,10.48,1.29,18.21,9.67,18.86,20.11.62,10.08-6.51,19.59-16.88,21.76-4.22.88-8.68.91-13.02.92-68.41.15-136.83-.56-205.21.63-46.74.81-83.35,48.38-74.72,94.34,7.88,41.98,40.08,68.75,84.07,69.32,28.42.37,56.85.09,85.27.05,2.44,0,4.87-.37,8.47-.67Z"/>
  <path class="cls-1" d="M414.83,569.14c-57.28,37.77-128.82,27.03-169.94-23.69-9.31-11.48-8.75-23.79,1.47-32.29,9.63-8.01,22.82-5.96,32.16,5,28.83,33.79,72.72,40.25,110.37,16.5,4.63-2.92,9.91-5.71,15.2-6.5,8.7-1.3,17.95,4.75,20.96,12.75,3.19,8.49,2.42,16.63-4.46,23.32-2.44,2.38-5.2,4.44-5.76,4.92Z"/>
  <path class="cls-1" d="M632.55,350.72c13.79-11.73,26.5-11.58,35.11-1.35,8.36,9.93,6.63,21.82-4.65,32.07-33.28,30.23-37.92,76.35-11.31,112.38,8.81,11.92,7.83,24.23-2.56,32.2-9.9,7.6-21.92,5.47-31.33-5.55-36.94-43.22-34.4-117.54,5.51-160.24,3.62-3.87,7.39-7.61,9.23-9.5Z"/>
</svg>