<?xml version="1.0" encoding="UTF-8"?>
<svg id="Layer_1" data-name="Layer 1" xmlns="http://www.w3.org/2000/svg" viewBox="0 0 2126.22 1567.99">
  <defs>
    <style>
      .cls-1 {
        fill: #1b1b1c;
      }

      .cls-2 {
        fill: #52abe2;
      }

      .cls-3 {
        fill: #fff;
      }
    </style>
  </defs>
  <path class="cls-1" d="M2121.67,381.88c-12.98,28.52-43.06,98.5-91.97,213.91-48.34,114.17-86.98,200.33-114.87,256.12-16.56,33.61-34.6,63.51-53.59,88.87-3.23,4.33-7.11,8.06-11.44,11.09,4.21,12.15,6,24.94,5.24,37.98-.05.94-.13,1.88-.21,2.82,3.35-.49,6.76-.75,10.25-.75,9.77,0,19.83,2.04,29.94,6.05,21.77,8.73,32.61,22.59,37.9,32.69,8.82,16.89,9.57,36.57,2.07,55.4-.7,1.72-1.48,3.42-2.35,5.08-20.58,38.68-48.07,71.58-81.97,98.19,1.56,25.34-3.27,53.61-14.53,85.4-14.98,42.25-36.82,83.52-64.91,122.71-28.15,39.24-62.42,74.87-101.86,105.87-42.47,33.29-84.13,53.61-123.88,60.4-.28.04-.56.09-.84.13-8.97,1.38-17.86,2.42-26.64,3.1-8.77.69-17.41,1.04-25.87,1.04-21.73,0-42.9-2.3-62.92-6.83-39.65-9.05-71.41-26.29-94.48-51.28-.68-.75-1.35-1.52-1.99-2.31-16.37-20.02-26.64-42.29-30.62-66.28-.67-.24-1.36-.47-2.02-.71-.72-.27-1.46-.56-2.19-.86-.09-.04-.19-.07-.28-.11-2.03-.83-4.05-1.74-6-2.73-1.11-.56-2.19-1.14-3.26-1.74-2.61-1.44-5.17-3.09-7.79-4.97-1.26-.88-2.22-1.64-2.79-2.1-2.66-2.07-5.04-4.16-7.26-6.38-.01-.01-.08-.09-.09-.11-.49-.49-.98-.98-1.47-1.48-.32-.33-.64-.67-.95-1-1.46-1.58-2.86-3.22-4.2-4.92-4.08-5.13-7.55-10.8-10.3-16.79-.73-1.56-1.42-3.18-2.06-4.89-.23-.59-.43-1.12-.63-1.67-.56-1.51-.96-2.78-1.2-3.57-.75-2.38-1.39-4.86-1.94-7.42-2.75-1.88-5.29-3.81-7.62-5.84-24.85-21.52-41.19-52.85-44.69-84.44-28.19,17.82-53.96,27.45-78.57,29.39-14.33,1.19-26.66,1.78-37.7,1.78-2.99,0-5.92-.04-8.71-.13-22.55-.7-41.59-7.34-56.52-19.78-4.14-3.45-7.94-7.04-11.36-10.75-30.51,22.16-64.14,33.4-99.96,33.4-4.21,0-8.49-.16-12.74-.47-.08-.01-.17-.03-.27-.03-26.29-2.08-48.81-9.96-66.95-23.42-17.59-13.02-30.03-31.09-36.46-52.63-5.28,4.61-10.8,9.13-16.6,13.55-.05.04-.09.08-.15.11-35.7,26.97-77.42,46.2-124.04,57.18-23.31,5.48-47.03,8.26-70.51,8.26s-48.9-2.97-73.17-8.83c-51.68-12.47-93.41-39.2-124-79.44-.11-.12-.2-.25-.29-.37-37.64-50.47-57.84-107.78-60.05-170.33-1.36-38.61,4.22-79.54,16.65-122.29-4.82-1.03-9.65-2.23-14.47-3.64-35.22-10.18-65.9-30.69-91.18-60.95-20.07-24.03-33.03-51.86-38.75-82.97-.71.03-1.42.08-2.14.08-6.42,0-12.86-1.22-18.98-3.69-39.76-16.02-74.5-42.63-103.26-79.1C21.93,659.65,0,595.81,0,524.72c0-80.5,28.75-150.51,85.47-208.06,56.94-57.74,126.77-87.01,207.59-87.01,10.38,0,20.48.44,30.26,1.34-3.07-11.96-4.65-24.34-4.65-37.01,0-.31.01-.6.01-.91.9-50.81,19.26-93.53,54.58-126.96,33.32-31.57,73.28-49.87,118.74-54.37,10.46-1.1,21.14-1.64,31.72-1.64,35.1,0,71.13,6.08,107.12,18.08,28.53,9.5,53.17,20.07,74.36,31.96C756.36,19.74,804.73,0,852.23,0c4.77,0,9.57.21,14.27.63.21.01.41.04.63.05,11.03,1.11,21.41,3.47,30.86,7.02,8.18,3.05,16.04,6.84,23.24,11.25.05.04.11.07.16.11,7.7,4.74,14.72,10.26,20.82,16.37.03.03.07.07.11.11,6.17,6.21,11.55,13.12,15.97,20.56.37-.33.76-.67,1.15-1,.25-.23.52-.45.79-.67,31.31-26.09,64.82-41.87,99.61-46.94,8.78-1.27,17.37-1.9,25.62-1.9,27.32,0,51.95,6.84,73.24,20.36,24,15.22,43.68,35.36,58.47,59.84,16.92,28.08,22.91,59.85,17.83,94.45-4.93,33.47-20.72,64.17-46.91,91.27-9.64,9.97-22.84,15.49-36.51,15.49-2.31,0-4.62-.16-6.94-.48-16.05-2.21-30.08-11.95-37.77-26.21-3.23-5.99-5.92-8.94-7.16-9.98-3.52.29-26.84,4.36-77.67,59.52-.09.09-.17.19-.27.28-4.28,4.57-8.55,9.29-12.82,14.11,20.36-8.82,41.59-13.9,63.48-15.08,3.38-.19,6.8-.28,10.17-.28,30.22,0,59.56,7.38,87.19,21.93,22.63,11.43,37.24,26.09,46.68,40.2,7.68-18,15.86-37.24,24.55-57.64,34.72-81.74,61.68-144.62,80.08-186.91,8.11-18.6,26.45-30.51,46.55-30.51,1.07,0,2.13.03,3.19.09,31.14,1.95,78.13,3.62,139.68,4.95,17.03.37,32.74,9.25,41.85,23.66.16.25.29.52.45.78,8.33-18,26.33-29.47,46.04-29.47,1.06,0,2.13.03,3.19.09,31.17,1.96,78.16,3.62,139.68,4.95,17.03.37,32.74,9.25,41.85,23.66,9.09,14.41,10.36,32.42,3.37,47.95l-66,146.72c8.09-5.27,17.67-8.25,27.72-8.25h125.66c10.51,0,20.58,3.25,28.96,9.07,8.61-6.4,19.19-10.06,30.37-10.06h141.72c17.28,0,33.36,8.77,42.72,23.3,9.34,14.51,10.67,32.8,3.53,48.52Z"/>
  <g>
    <path class="cls-3" d="M1173.71,112.04c-10.73-17.75-24.8-32.17-42.22-43.22-17.45-11.08-38.89-14.74-64.33-11.08-25.49,3.71-50.27,15.58-74.41,35.7-25.47,22.11-51.11,50.27-76.9,84.45-25.79,34.18-48.25,67.19-67.35,99.01-19.1,31.84-39.88,70.73-62.34,116.61-22.46,45.93-39.71,82.28-51.76,109.09-5.57,12.4-11.83,26.55-18.68,42.42,19.66-4.12,38.52-6.18,56.4-6.18,1.86,0,3.71.02,5.53.07,9.99.24,19.72.85,29.15,1.82,56.85-110.89,116.16-199.33,177.91-265.33,79.07-85.79,134.71-98.86,166.88-39.21,18.77-19.42,29.83-40.55,33.19-63.34,3.34-22.78-.35-43.05-11.05-60.82ZM741.43,160.79v-1c22.76-29.48,47.23-43.22,73.37-41.21,14.09,1.34,25.14,7.2,33.19,17.58,8.04,10.4,10.71,23.3,8.04,38.71,11.38.67,22.43-1.84,33.16-7.54,10.73-5.68,19.44-13.89,26.14-24.62,6.7-10.73,9.39-22.13,8.04-34.18-.67-4.68-1.67-9.21-3.01-13.57-1.34-4.36-3.19-8.56-5.53-12.57-2.36-4.03-5.2-7.69-8.54-11.05-3.36-3.36-7.22-6.37-11.57-9.06-4.36-2.67-9.21-5.03-14.57-7.02-5.38-2.02-11.4-3.36-18.1-4.03-45.58-4.01-96.5,20.11-152.81,72.37-22.78-18.08-54.28-33.84-94.48-47.23-40.23-13.42-79.42-18.1-117.63-14.09-34.18,3.36-63.83,16.93-88.96,40.73-25.14,23.8-38.06,54.12-38.71,90.97,0,28.16,11.21,53.13,33.68,74.89,22.43,21.78,48.4,34.36,77.9,37.69,22.78,1.37,44.39-3.51,64.85-14.57,20.42-11.05,35.68-26.64,45.74-46.75-14.76,8.74-27.64,9.23-38.71,1.52-11.05-7.69-16.58-19.94-16.58-36.7,1.34-22.11,10.38-38.02,27.14-47.75,16.76-9.71,35.03-13.22,54.8-10.56,19.77,2.69,36.7,9.39,50.76,20.11-24.12,34.85-54.95,89.45-92.49,163.87-8.71,15.41-21.46,39.19-38.19,71.36-12.07,19.46-22.46,35.7-31.17,48.77-8.71,13.07-20.46,27.81-35.18,44.24-14.76,16.43-31.02,28.81-48.77,37.2-17.75,8.39-36.35,12.55-55.79,12.55-20.77.69-37.2-4.68-49.25-16.08-16.78-16.08-21.78-36.52-15.09-61.32,6.03-22.11,18.75-33.16,38.19-33.16,12.07-.67,21.29,3.19,27.66,11.55,6.35,8.39,5.85,19.27-1.52,32.66,40.88-10.71,68.69-29.15,83.45-55.29,16.08-30.15,10.71-60.65-16.08-91.47-32.17-37.52-79.42-56.29-141.76-56.29-67.02,0-124.16,23.95-171.41,71.88-47.23,47.92-70.86,105.39-70.86,172.41,0,59.65,18.08,112.43,54.28,158.34,23.3,29.54,50.74,50.7,82.37,63.44,2.58-41.08,18.58-78.81,47.66-112.45,34.64-40.01,79.9-62.12,130.92-63.96.3,0,.59,0,.89-.02,1.58-.02,3.14-.04,4.68-.04,48.86,0,87.22,14.11,114.04,41.94,10.06,10.45,17.43,21.87,22.13,33.9,2.02-2.8,4.01-5.66,5.98-8.56,20.42-30.15,37.35-60.65,50.76-91.47,13.4-30.82,26.47-66,39.19-105.56,1.34-4.68,4.86-14.91,10.56-30.67,5.7-15.74,10.23-27.96,13.59-36.68,1.99-6.05,5.03-14.24,9.04-24.64,4.03-10.38,7.37-18.6,10.06-24.62.65-2.02,1.84-4.68,3.51-8.04,1.67-3.34,3.51-7.54,5.53-12.57,2.02-5.03,4.03-9.54,6.05-13.57,15.39-28.81,26.12-48.25,32.17-58.31,0,6.03-1.37,12.42-4.03,19.1-2.02,5.38-4.53,13.57-7.54,24.64-3.01,11.05-6.2,22.28-9.54,33.66-3.36,11.4-7.04,22.48-11.05,33.19-1.37,3.36-2.69,6.87-4.03,10.56-1.34,3.69-2.36,6.7-3.01,9.04-.67,2.36-1.69,5.87-3.01,10.56-9.41,25.49-16.43,45.09-21.11,58.81-4.7,13.74-11.05,33.36-19.1,58.83-8.06,25.47-13.76,46.08-17.1,61.82-2.9,13.63-6.05,29.5-9.43,47.62,26.7-16.97,54.06-30.41,81.65-40.14,8.82-3.12,17.54-5.87,26.12-8.24,7.8-63.27,27.64-142.95,59.5-239.02,22.78-57.61,19.1-107.88-11.05-150.8Z"/>
    <path class="cls-3" d="M1225.47,535.78c-11.73-4.68-19.94-2.67-24.62,6.03-2.06,2.99-4.34,6.13-6.78,9.45-11.79,15.98-27.96,35.61-48.51,58.91-12.75,10.73-26.64,19.62-41.73,26.64-15.06,7.04-29.65,11.57-43.72,13.57-14.09,2.02-26.31-.82-36.7-8.54-10.4-7.69-16.58-20.94-18.6-39.71,21.44-11.38,38.71-20.76,51.76-28.16,13.07-7.35,28.83-17.73,47.25-31.15,18.42-13.4,34.01-27.14,46.75-41.23,13.4-12.05,23.13-26.14,29.15-42.22,6.03-16.08,6.37-31.82,1-47.25-5.35-15.41-16.76-27.46-34.18-36.18-22.78-12.07-46.58-17.43-71.36-16.08-24.82,1.34-48.45,9.54-70.88,24.62-22.48,15.09-43.59,33.34-63.34,54.8-19.79,21.46-36.02,46.08-48.77,73.89-6.63,14.48-12.35,28.74-17.17,42.77,23.91,8.65,44.78,20.22,62.17,34.44.17.13.32.28.5.41,32.86,27.59,49.07,63.47,46.86,103.72-1.26,22.93-6.65,45.5-16.08,67.43,7.52,1.08,15.45,1.78,23.76,2.04,40.55,1.34,72.55-7.02,96-25.12,22.2-14.61,44.28-34.9,66.24-60.89,5.25-6.2,10.47-12.7,15.69-19.55,27.16-35.5,49.42-69.02,66.87-100.51,4.01-10.06.15-17.43-11.57-22.13ZM1013.85,535.28c1.34-4.36,2.34-7.87,3.01-10.56,6.7-19.44,15.24-37.35,25.64-53.78,10.38-16.43,20.77-29.33,31.17-38.71,10.38-9.39,19.94-14.07,28.65-14.07,3.34,0,6.35.35,9.04,1,21.44,4.7,16.08,24.8-16.08,60.32-29.5,32.17-57.31,53.95-83.43,65.35,0-2.02.65-5.2,1.99-9.56Z"/>
    <path class="cls-3" d="M1459.2,538.79c-3.36-2.02-7.04-3.51-11.05-4.51-4.03-1.02-7.89-.85-11.57.5-1.93.69-3.71,1.67-5.35,2.93-1.52,1.13-2.9,2.49-4.18,4.1-46.93,69.04-83.45,98.88-109.59,89.48-9.39-2.02-9.39-18.42,0-49.25l68.36-154.83,8.04-18.1,4.03-7.02h-1.02l112.6-250.33c-62.34-1.34-109.59-3.01-141.76-5.03-18.1,41.57-44.74,103.72-79.92,186.5-35.18,82.78-61.82,144.92-79.92,186.48-2.02,4.7-5.53,12.74-10.56,24.12-1.15,2.58-2.23,5.07-3.25,7.43-3.56,8.13-6.48,15.02-8.82,20.72-3.01,7.37-6.85,16.93-11.55,28.65-4.68,11.73-8.04,21.78-10.06,30.15-2.02,8.39-4.18,17.95-6.52,28.65-1.47,6.78-2.36,12.96-2.62,18.53-.17,3.25-.13,6.29.11,9.1.67,7.72,2.02,15.59,4.01,23.63,2.02,8.04,5.87,15.26,11.57,21.61,5.7,6.39,12.9,11.57,21.61,15.58,10.73,6.05,22.11,9.73,34.18,11.05,12.05,1.37,25.79,1.37,41.21,0,4.86-.37,9.86-1.34,15.06-2.93.17-5.14.91-10.4,2.21-15.78,2.54-10.53,9.21-26.94,26.88-38.41,1.08-4.34,2.51-8.97,4.51-13.63,13.22-30.78,44.82-59.98,76.93-71.1,2.1-.74,4.31-1.39,6.74-1.97,1.8-.48,3.73-.91,5.81-1.34,6.31-12.25,17.62-25.79,38.39-34.14,3.94-1.56,7.89-2.86,11.83-3.84,3.77-6.11,7.35-12.1,10.71-17.9.65-4.03.5-7.72-.52-11.08-1-3.34-3.19-6.03-6.52-8.04Z"/>
    <path class="cls-3" d="M1696.93,546.83c-1-3.34-3.19-6.03-6.52-8.04-3.36-2.02-7.04-3.51-11.05-4.51-4.03-1.02-7.89-.85-11.55.5-1.04.37-2.02.82-2.97,1.37-2.47,1.37-4.66,3.25-6.59,5.66-46.93,69.04-83.45,98.88-109.59,89.48-.13-.02-.26-.07-.39-.11,1,3.81,1.67,7.76,2.06,11.79,22.3,17.45,34.9,38.24,41.96,58.03,7.13-7.24,14.11-14.96,20.92-23.11.11-.11.2-.24.3-.35,18.42-22.13,34.51-43.24,48.25-63.34,13.74-20.11,25.64-38.86,35.7-56.29.65-4.03.5-7.72-.52-11.08ZM1740.68,151.75c-62.34-1.34-109.57-3.01-141.76-5.03-18.08,41.57-44.72,103.72-79.92,186.5-35.18,82.78-61.82,144.92-79.92,186.48-1.63,3.81-4.25,9.82-7.87,18.01-.85,1.91-1.73,3.95-2.69,6.11-5.03,11.4-9.04,20.79-12.05,28.16-3.03,7.37-6.87,16.93-11.57,28.65-2.06,5.16-3.86,9.99-5.4,14.5,1.8-.48,3.73-.91,5.81-1.34,6.31-12.25,17.62-25.79,38.39-34.14,3.94-1.56,7.89-2.86,11.83-3.84,6.33-1.56,12.64-2.34,18.88-2.34,14.65,0,36.13,4.29,55.32,24.73,4.81,5.14,8.82,10.6,11.96,16.39.48-8,2.8-18.86,6.96-32.56l68.36-154.83,8.04-18.1,4.03-7.02h-1.02l112.6-250.33Z"/>
    <path class="cls-3" d="M1933.7,360.86c-8.71,19.44-21.61,46.23-38.71,80.42-17.08,34.18-31.67,65.35-43.72,93.51-6.05,15.41-14.44,30.82-25.14,46.23-21.46,31.52-39.21,48.6-53.28,51.28-10.73,1.99-11.4-10.06-2.02-36.2,8.71-23.45,18.92-48.25,30.67-74.39,11.71-26.14,24.95-54.95,39.71-86.46,14.74-31.49,25.79-55.94,33.16-73.39h-125.65c-10.06,22.13-23.47,49.94-40.21,83.45-15.58,31.15-30.15,61.45-43.68,90.84-1.04,2.23-2.06,4.47-3.08,6.68-14.41,31.52-27.98,65.68-40.71,102.52-4.05,11.49-6.68,22.33-7.85,32.54-2.34,20.16.95,37.8,9.84,52.93,14.76,26.81,38.56,37.52,71.38,32.17,46.26-8.04,87.46-44.56,123.66-109.57-23.47,55.62-49.77,100.36-78.92,134.19-10.69,12.38-21.22,22.95-31.67,31.69,2.54,3.56,4.57,6.98,6.2,10.04,5.12,9.67,10.64,24.23,11.05,42.38,15,3.03,28.48,6.48,40.64,10.4,23.84,7.72,41.86,16.91,55.21,28.22,17.28-23.06,33.51-50.07,48.75-81,27.48-54.97,65.35-139.4,113.6-253.34,48.27-113.93,79.07-185.63,92.49-215.13h-141.74Z"/>
  </g>
  <path class="cls-3" d="M781.99,863.2c-23.47,4.7-43.4,1.85-59.82-8.55-16.43-10.38-24.98-26.97-25.64-49.76-37.54,17.44-76.07,32.52-115.61,45.24-2.01,3.36-3.02,5.37-3.02,6.03-15.42,34.85-26.14,66.52-32.17,95-6.03,28.5-8.04,51.77-6.03,69.87,2.01,18.1,6.53,33.02,13.57,44.74,7.04,11.74,15.74,19.78,26.14,24.13,10.38,4.37,21.27,5.2,32.67,2.51,15.41-2.67,29.99-11.22,43.73-25.64,13.73-14.4,21.94-29.48,24.63-45.24,2.67-15.74-1.68-28.98-13.07-39.71,38.2-18.76,73.04-14.07,104.55,14.07,30.16,26.14,43.56,60.99,40.21,104.55-4.02,45.58-28.49,85.45-73.39,119.63-30.16,22.79-65.19,38.88-105.05,48.25-39.88,9.38-79.92,9.21-120.13-.5-40.21-9.71-72.05-29.99-95.5-60.82-62.99-84.45-66.68-189-11.06-313.66-23.45,6.71-47.91,6.38-73.39-1.01-25.46-7.37-47.58-22.27-66.35-44.74-18.76-22.45-28.81-49.42-30.16-80.93-2.01-36.85,9.9-70.2,35.69-100.03,25.81-29.81,57.48-45.4,95-46.75,36.85-.66,64.17,8.22,81.93,26.64,17.75,18.44,18.93,39.38,3.52,62.83-.68-7.37-8.39-10.71-23.12-10.05-21.46,0-34.18,10.4-38.2,31.16-1.34,4.02-2.01,8.04-2.01,12.07,0,15.42,5.88,28.82,17.59,40.21,11.72,11.4,30.66,14.75,56.8,10.05,32.83-49.59,72.38-93.49,118.63-131.7,32.83-24.79,66.35-43.23,100.53-55.29,34.18-12.06,65.17-17.75,92.99-17.09,27.8.68,52.61,4.53,74.39,11.56,21.77,7.04,40.04,16.59,54.79,28.65,20.77,17.44,30.49,38.37,29.15,62.83-1.35,24.47-9.05,48.43-23.12,71.88-14.07,23.47-33.17,44.41-57.3,62.83-24.13,18.44-48.25,30.66-72.38,36.69ZM652.3,731.51c38.86-19.43,66-31.49,81.43-36.19,18.1-5.36,29.81-5.36,35.19,0,1.34,0,2.34.68,3.02,2.01,8.04,9.39,6.36,30.5-5.03,63.33,0,2.01.66,3.69,2.01,5.03,6.03,3.36,13.9-1.67,23.63-15.08,9.71-13.4,16.59-28.15,20.61-44.23,4.02-16.09,3.02-29.81-3.02-41.22l-4.02-5.03c-5.37-6.69-15.08-10.05-29.15-10.05-39.55,0-81.1,27.14-124.66,81.43Z"/>
  <path class="cls-3" d="M1185.1,1140.67c-7.38-2.67-3.7-22.78,11.06-60.33,14.73-37.53,32.5-79.41,53.28-125.65,20.77-46.26,32.82-74.4,36.18-84.46l-139.74-.99c-39.55,101.2-79.41,179.29-119.63,234.22-26.8,36.87-41.88,47.26-45.23,31.17-6.71-27.47,25.79-115.61,97.51-264.4l-128.68-.99c-1.35,2-2.67,4.35-4.02,7.03-1.35,2.69-2.69,5.03-4.02,7.04-1.35,3.36-6.21,13.24-14.57,29.65-8.39,16.43-15.75,31.33-22.13,44.73-6.37,13.42-14.39,30.84-24.13,52.28-9.7,21.45-17.6,41.07-23.62,58.81-6.04,17.77-12.07,37.05-18.11,57.8-6.02,20.8-9.19,39.05-9.54,54.81-.34,15.75.85,30.66,3.52,44.73,2.69,14.07,9.22,24.98,19.6,32.66,10.41,7.72,23.97,12.25,40.72,13.58,54.29,4.02,101.19-28.15,140.75-96.51,0,2.02-.69,6.39-2.02,13.06-1.35,6.71-2.35,12.92-3.01,18.6-.69,5.7-.85,12.41-.51,20.11.34,7.72,1.84,14.07,4.53,19.1,2.67,5.03,7.03,10.05,13.07,15.08,6.04,5.03,14.59,7.7,25.63,8.04,11.06.35,24.64-.16,40.72-1.51,17.42-1.34,37.71-9.72,60.82-25.14,16.57-11.05,32.45-23.63,47.65-37.8,3.41-3.17,6.79-6.42,10.12-9.75t.03-.02c2.53-2.53,5.04-5.11,7.54-7.72.35-.37.72-.75,1.06-1.12l7.22-34.74,10.89-52.34c-30.26,34.07-54.56,47.73-72.95,40.96Z"/>
  <path class="cls-3" d="M1494.46,1041.38l-13.08,63.93-12.66,61.82-6.31,30.87c-7.41-2.72-15.43-7.99-22.82-17.58-12.6-16.03-16.68-33.88-12.25-50.85l18.11-6.18,6.31-30.82c7.48-7.7,16.81-18.49,27.84-32.21,4.68-5.83,9.64-12.17,14.86-18.97Z"/>
  <path class="cls-3" d="M1534.04,848.1l-13.89,67.84c-.91-5.81-1.11-12.05-.43-18.75.8-18.64,5.61-35.07,14.33-49.1Z"/>
  <path class="cls-3" d="M1876.23,1045.17c-11.75-4.68-20.29-2.69-25.65,6.04-26.8,38.86-56.98,65.68-90.46,80.41-.67,0-1.87-.64-3.54-2.02-1.66-1.31-3.19-2.34-4.51-3.01-9.4-3.33-14.25-8.69-14.59-16.07-.34-7.38,2.85-15.59,9.56-24.62,6.68-9.06,14.07-19.28,22.11-30.68,8.04-11.38,15.74-22.75,23.14-34.18,7.36-11.38,11.37-22.75,12.04-34.17.67-11.4-2.51-21.95-9.53-31.65-7.04-9.72-21.97-18.28-44.75-25.65-22.8-7.36-52.63-13.06-89.47-17.1,15.42-22.11,18.43-42.06,9.06-59.8-9.41-17.76-28.84-24.62-58.31-20.62-16.11,2.02-30.16,8.89-42.22,20.62-12.07,11.72-18.44,27.31-19.12,46.74-2.67,23.47,12.07,41.88,44.24,55.29h.99c-5.35,7.4-18.25,25.31-38.68,53.8-20.45,28.48-38.22,52.12-53.28,70.88-1.01,1.26-2.02,2.5-3.01,3.71-.48.59-.98,1.18-1.44,1.78-2.72,3.33-5.33,6.47-7.85,9.45l-11.86,75.94c.56-.08,1.14-.19,1.7-.35.21-.05.42-.11.62-.18,2.69-.85,5.46-2.5,8.29-5.01.34-.29.66-.58.99-.9.66-.61,1.33-1.28,2-2,15.4-18.11,30.5-37.72,45.23-58.84,14.75-21.1,31.49-46.56,50.27-76.37,18.75-29.83,32.17-50.79,40.2-62.84h2.02c12.73,1.35,24.13,2.69,34.18,4,10.04,1.38,18.59,3.03,25.62,5.03,7.04,2.02,13.06,3.89,18.09,5.54,5.03,1.68,8.37,4.19,10.07,7.54,1.67,3.36,3.01,6.02,4,8.04,1.02,2.02-.32,5.38-4,10.05-3.7,4.71-6.55,8.55-8.55,11.56-2.02,3.03-6.72,7.89-14.09,14.59-7.36,6.69-13.38,12.06-18.08,16.07-4.71,4.02-12.42,10.07-23.12,18.11-12.74,10.73-22.82,19.1-30.18,25.12-10.04,10.73-13.4,19.26-10.04,25.65,3.35,6.37,10.71,10.23,22.11,11.54,2.02.67,7.2,1.2,15.59,1.52,8.36.35,14.22.99,17.6,2.02,3.33.99,7.52,3.19,12.55,6.52,5.03,3.36,8.89,7.72,11.58,13.08-4.03,0-7.04.34-9.06.99-82.07,20.53-155.95,55.75-221.65,105.67-.85.62-1.68,1.25-2.51,1.91-12.07,8.71-24.14,18.75-36.2,30.15-12.07,11.4-24.3,25.14-36.7,41.23-8.34,10.84-15.42,21.58-21.18,32.28-2.79,5.17-5.28,10.34-7.48,15.47-6.69,15.74-9.19,32.33-7.54,49.78,1.7,17.42,8.57,33.51,20.61,48.24,16.09,17.44,38.89,29.48,68.37,36.2,29.51,6.68,61.67,7.37,96.51,2.02,31.49-5.38,65.16-22.13,101.04-50.26,35.83-28.16,66.49-60.01,91.97-95.54,25.47-35.53,44.89-72.22,58.31-110.06,13.4-37.87,15.4-68.19,6.05-90.97,40.2-24.8,71.38-57.99,93.49-99.54,4-10.05.14-17.42-11.56-22.11ZM1627.43,906.42c-9.41-3.33-14.27-7.54-14.59-12.57-.35-5,2.16-8.85,7.54-11.54,6.02-2.02,9.88-.34,11.54,5.03,1.66,5.38.18,11.72-4.5,19.08Z"/>
  <path class="cls-1" d="M1221.18,1205.41c3.41-3.17,6.79-6.42,10.12-9.75-3.67,2.35-7.24,5.49-10.12,9.75Z"/>
  <path class="cls-1" d="M1548.37,780.88c-1.04-2.77,2.48-11.45,2.63-16.3,1.26-38.79-7.85-70.02-43.25-90.3-2.64-1.52-9.73-2.88-10.04-3.38-1.73-2.69,10.81-22.46-4.35-38.59-8.84-9.43-19.07-11.22-31.08-6.39-19.44,7.8-13.43,24.86-19.77,31.19-1.18,1.22-26.77,4.79-33.41,7.09-18.43,6.37-39.74,25.7-47.41,43.58-3.91,9.11-4.03,23.46-7.54,29.33-2.87,4.74-17.9.98-21.23,14.78-5.3,22.11,16.59,18.27,11,37.37l-57.08,274.31-19.29,92.72-10.68,51.38c-10.92,3.62-19.85,4.42-21.31,18.27-1.47,14.15,11.5,13.66,13.35,20.53,1.71,6.13-3.23,20.24-3.44,29.16-.5,22.32,11.18,45.58,27.89,60.04,5.89,5.14,24.61,14.46,25.28,15.79.88,1.68-2.26,9.38-1.91,13.56.03.56.1,1.12.19,1.7.06.56.14,1.1.26,1.63.24,1.31.54,2.59.93,3.79.13.42.26.83.4,1.22.14.4.3.78.45,1.17.18.48.37.96.59,1.41,1.1,2.48,2.51,4.76,4.11,6.77.54.69,1.1,1.34,1.68,1.97t.05.05c.35.37.69.7,1.04,1.06.85.85,1.76,1.62,2.69,2.34.3.24.61.48.91.69,1.06.77,2.15,1.49,3.27,2.08.37.22.74.42,1.1.59.74.38,1.5.74,2.26,1.04.37.14.74.3,1.09.43.51.19,1.06.37,1.58.54.27.08.56.18.83.24.78.24,1.59.43,2.39.58,1.71-9.83,4.56-19.45,8.52-28.79,7.69-18.03,18.62-36.34,32.53-54.37,13.39-17.34,26.8-32.41,39.91-44.78,12.74-12.06,25.84-22.96,38.89-32.42,4.92-3.78,9.88-7.46,14.91-11.08l5.09-24.88,6.31-30.87,12.66-61.82,13.08-63.93,25.7-125.43,13.88-67.85,6.48-31.67c1.83-3.55,18.04,5.62,19.9-17.56,1.15-14.23-11.1-15.43-12.06-17.98ZM1340.98,948.1c28.96-11.94,58.81-22.4,88.51-32.33,20.49-6.85,41.37-14.11,62.39-19.13l-14.59,71.26-150.39,48.85,14.07-68.65ZM1294.55,1174.84l14.07-68.65c49.07-21.26,101.22-35.54,151.43-54.05l-8.29,40.43-6.31,30.82-18.11,6.18-132.79,45.28ZM1420.79,1243.9l-67.34-13.79,75.84-27.68-8.5,41.47ZM1478.62,820.49l-119.34,38.19,15.39-75.15,124.37,25.47c4.05,4.88-18.3,9.32-20.41,11.5Z"/>
  <path class="cls-2" d="M1548.37,780.88c-1.04-2.77,2.48-11.45,2.63-16.3,1.26-38.79-7.85-70.02-43.25-90.3-2.64-1.52-9.73-2.88-10.04-3.38-1.73-2.69,10.81-22.46-4.35-38.59-8.84-9.43-19.07-11.22-31.08-6.39-19.44,7.8-13.43,24.86-19.77,31.19-1.18,1.22-26.77,4.79-33.41,7.09-18.43,6.37-39.74,25.7-47.41,43.58-3.91,9.11-4.03,23.46-7.54,29.33-2.87,4.74-17.9.98-21.23,14.78-5.3,22.11,16.59,18.27,11,37.37l-57.08,274.31-19.29,92.72-10.68,51.38c-10.92,3.62-19.85,4.42-21.31,18.27-1.47,14.15,11.5,13.66,13.35,20.53,1.71,6.13-3.23,20.24-3.44,29.16-.5,22.32,11.18,45.58,27.89,60.04,5.89,5.14,24.61,14.46,25.28,15.79.88,1.68-2.26,9.38-1.91,13.56.03.56.1,1.12.19,1.7.06.56.14,1.1.26,1.63.24,1.31.54,2.59.93,3.79.13.42.26.83.4,1.22.14.4.3.78.45,1.17.18.48.37.96.59,1.41,1.1,2.48,2.51,4.76,4.11,6.77.54.69,1.1,1.34,1.68,1.97t.05.05c.35.37.69.7,1.04,1.06.85.85,1.76,1.62,2.69,2.34.3.24.61.48.91.69,1.06.77,2.15,1.49,3.27,2.08.37.22.74.42,1.1.59.74.38,1.5.74,2.26,1.04.37.14.74.3,1.09.43.51.19,1.06.37,1.58.54.27.08.56.18.83.24.78.24,1.59.43,2.39.58,1.71-9.83,4.56-19.45,8.52-28.79,7.69-18.03,18.62-36.34,32.53-54.37,13.39-17.34,26.8-32.41,39.91-44.78,12.74-12.06,25.84-22.96,38.89-32.42,4.92-3.78,9.88-7.46,14.91-11.08l5.09-24.88,6.31-30.87,12.66-61.82,13.08-63.93,25.7-125.43,13.88-67.85,6.48-31.67c1.83-3.55,18.04,5.62,19.9-17.56,1.15-14.23-11.1-15.43-12.06-17.98ZM1340.98,948.1c28.96-11.94,58.81-22.4,88.51-32.33,20.49-6.85,41.37-14.11,62.39-19.13l-14.59,71.26-150.39,48.85,14.07-68.65ZM1294.55,1174.84l14.07-68.65c49.07-21.26,101.22-35.54,151.43-54.05l-8.29,40.43-6.31,30.82-18.11,6.18-132.79,45.28ZM1420.79,1243.9l-67.34-13.79,75.84-27.68-8.5,41.47ZM1478.62,820.49l-119.34,38.19,15.39-75.15,124.37,25.47c4.05,4.88-18.3,9.32-20.41,11.5Z"/>
</svg>