<?xml version="1.0" encoding="UTF-8"?>
<svg id="Logo" xmlns="http://www.w3.org/2000/svg" xmlns:xlink="http://www.w3.org/1999/xlink" viewBox="0 0 1080 1080">
  <defs>
    <style>
      .cls-1 {
        fill: url(#linear-gradient);
      }

      .cls-2 {
        fill: #fff;
      }
    </style>
    <linearGradient id="linear-gradient" x1="-23.41" y1="-23.41" x2="466.1" y2="466.1" gradientUnits="userSpaceOnUse">
      <stop offset="0" stop-color="#fff" stop-opacity=".6"/>
      <stop offset=".01" stop-color="#fefbfa" stop-opacity=".61"/>
      <stop offset=".27" stop-color="#ebafab" stop-opacity=".78"/>
      <stop offset=".5" stop-color="#de7872" stop-opacity=".9"/>
      <stop offset=".72" stop-color="#d6574f" stop-opacity=".97"/>
      <stop offset=".88" stop-color="#d44c43"/>
      <stop offset=".99" stop-color="#d44c43"/>
      <stop offset="1" stop-color="#d44c43"/>
    </linearGradient>
  </defs>
  <rect class="cls-1" x="121.58" y="121.58" width="836.85" height="836.85" rx="219.76" ry="219.76"/>
  <g>
    <path class="cls-2" d="M847.67,579.35c-2.19,8.56-3.62,17.41-6.7,25.64-8.89,23.76-24.83,41.68-47.33,53.46-3.83,2.01-5.16,4.31-5.58,8.44-5.38,52.97-32.35,91.02-81.3,111.57-41.5,17.42-82.09,12.46-120.24-11.55-14.06-8.85-25.53-20.4-34.92-34.02-1.87-2.71-3.93-3.51-7.06-3.5-21.71.07-43.44.59-65.12-.21-34.3-1.25-59.29-22-67.92-55.15-.27-1.03-.63-2.03-1.15-3.7-1.74,0-3.63,0-5.53,0-24.02-.07-48.06.32-72.06-.33-44.09-1.19-85.22-33.01-96.88-74.23-13.03-46.06,10.71-97.27,54.36-117.22,1.29-.59,2.55-1.23,4.07-1.97-.74-5.04-1.66-10.07-2.18-15.15-6.35-61.57,43.67-114.23,105.31-110.85,5.3.29,10.6,1.1,15.82,2.06,3.07.56,4.66.1,6.13-3.02,13.77-29.15,36.5-47.7,67.68-55.46,45.81-11.41,92.29,10.85,113.83,54.3,1.97,3.97,3.8,4.73,8.08,3.85,67.56-14,129.6,44.9,119.39,113.17-.2,1.37-.2,2.76-.22,3.07,12.56.59,25.02.11,37.13,1.94,41.42,6.26,76.54,43.45,81.34,85.01.18,1.56.69,3.08,1.05,4.63v19.23ZM536.2,704.45c-.59-1.9-.92-3.08-1.32-4.23-4.49-13.06-7.09-26.51-6.85-40.3.06-3.7,1.62-8.36,4.17-10.83,7.03-6.79,18.34-2.42,19.79,7.32,1.09,7.38,1.03,14.97,2.57,22.23,16.76,79.01,108.04,111.48,170.75,60.59,21.59-17.52,33.82-40.71,38.02-69-5.93,0-11.41.19-16.86-.06-4.99-.22-8.82-2.63-10.87-7.34-1.94-4.46-1.93-9.46,1.68-12.38,3.29-2.66,8.1-4.58,12.32-4.75,39-1.57,72.28-34.34,73.4-73.2,1.71-59.27-58.96-96.37-108.34-71.65-6.6,3.3-11.84,2.74-15.82-1.18-4.52-4.44-4.98-9.51-1.52-16.66,20.46-42.29-3.42-93.53-49.17-105.33-16.14-4.16-32-3.09-47.69,2.63-8.11,2.96-13.75-.09-16.77-8.24-.68-1.83-1.26-3.7-1.91-5.54-10.89-30.76-40.52-51.56-72.34-50.79-33.23.8-61.71,22.3-71.27,53.79-3.43,11.3-8.71,13.92-20.09,9.95-44.17-15.37-90.16,10.17-100.33,55.81-3.22,14.45-1.75,28.6,3.24,42.51,3.6,10.03.44,15.97-9.75,19.15-1.19.37-2.39.7-3.56,1.1-43.19,14.72-63.84,66.01-41.85,105.59,14.87,26.76,39.14,39.99,69.05,41.56,24.49,1.29,49.11.32,73.67.33.68,0,1.36-.23,1.98-.35,6.91-33.9,36.57-60.05,76.44-58.79,35.91,1.14,71.89.24,107.85.25,1.96,0,3.93-.08,5.87.16,5.97.74,10.38,5.51,10.75,11.46.36,5.74-3.71,11.16-9.62,12.4-2.41.5-4.94.52-7.42.53-38.98.09-77.96-.32-116.92.36-26.63.46-47.49,27.57-42.57,53.75,4.49,23.92,22.84,39.17,47.9,39.5,16.19.21,32.39.05,48.59.03,1.39,0,2.77-.21,4.82-.38Z"/>
    <path class="cls-2" d="M468.68,556.6c-32.64,21.52-73.4,15.4-96.83-13.5-5.3-6.54-4.98-13.56.84-18.4,5.48-4.56,13-3.39,18.32,2.85,16.43,19.25,41.43,22.93,62.89,9.4,2.64-1.66,5.65-3.25,8.66-3.7,4.96-.74,10.23,2.71,11.94,7.26,1.82,4.84,1.38,9.47-2.54,13.29-1.39,1.36-2.96,2.53-3.28,2.8Z"/>
    <path class="cls-2" d="M592.73,432.16c7.85-6.68,15.1-6.6,20-.77,4.76,5.66,3.78,12.43-2.65,18.27-18.96,17.22-21.61,43.5-6.44,64.03,5.02,6.79,4.46,13.81-1.46,18.35-5.64,4.33-12.49,3.12-17.85-3.16-21.05-24.63-19.6-66.97,3.14-91.3,2.06-2.21,4.21-4.33,5.26-5.41Z"/>
  </g>
</svg>